<svg width="122" height="40" viewBox="0 0 122 40" fill="none" xmlns="http://www.w3.org/2000/svg">
<path fill-rule="evenodd" clip-rule="evenodd" d="M10.329 11.0565C18.6941 10.6928 17.2635 0.557673 9.74703 0C1.91536 0.775893 1.69715 11.4202 10.329 11.0565ZM79.0245 16.8789C79.2992 17.1731 79.2654 17.7555 79.1995 18.89C79.1364 19.9775 79.0437 21.5724 79.1652 23.9072C79.0508 26.2029 79.1475 27.7751 79.2137 28.8498C79.2827 29.9712 79.3184 30.5507 79.0459 30.845C78.7545 31.1597 78.1105 31.148 76.7777 31.1237H76.7776C76.2498 31.1141 75.614 31.1025 74.8493 31.1085C74.4129 31.1085 74.1946 31.0357 74.1946 30.5265C74.2108 27.5857 74.2054 24.6448 74.2 21.7039V21.7008C74.1973 20.2298 74.1946 18.7588 74.1946 17.2879C74.1946 16.8272 74.3159 16.5847 74.8493 16.609C75.6261 16.6181 76.2691 16.6078 76.8007 16.5993C78.1016 16.5786 78.7347 16.5685 79.0245 16.8789ZM71.3093 26.7926C72.3277 26.7926 72.3519 26.8168 72.3519 27.8352C72.3519 28.117 72.3465 28.3988 72.3412 28.6815V28.6817V28.682C72.3304 29.2504 72.3195 29.8225 72.3519 30.4053C72.4004 31.1085 72.0609 31.1327 71.5275 31.1327H60.5195C59.7284 31.1327 58.9345 31.13 58.1398 31.1273C56.5476 31.1219 54.9518 31.1165 53.3668 31.1327C52.8333 31.1327 52.6151 30.9872 52.6636 30.4296C52.6672 30.2151 52.6655 30.0012 52.6638 29.7888C52.6541 28.5609 52.6448 27.3869 53.6577 26.4773C54.9776 24.897 56.285 23.3104 57.5912 21.7254L57.5918 21.7246L57.592 21.7244C59.9327 18.8839 62.2692 16.0484 64.6657 13.2629C64.4935 13.0142 64.2609 13.0372 64.0513 13.058C63.9953 13.0636 63.9409 13.0689 63.8898 13.0689C60.5195 13.0447 57.1735 13.0447 53.8032 13.0689C53.1485 13.0689 52.9546 12.875 52.9788 12.2446C53.0716 11.9664 53.0324 11.4595 52.9907 10.9207C52.9126 9.90993 52.8258 8.78676 53.585 8.85003H71.1396L71.1847 8.84992C71.4862 8.84882 71.7931 8.8477 71.77 9.28647C71.7225 9.571 71.7421 9.98693 71.7632 10.4343C71.8067 11.3594 71.8565 12.419 71.3335 12.7295C69.4908 14.936 67.6662 17.1606 65.8416 19.3853L65.8409 19.3861L65.8406 19.3865C64.0164 21.6107 62.1922 23.8349 60.3498 26.0409C59.8406 26.4289 60.0588 26.938 60.6893 26.7926H71.3093ZM78.3408 14.0388C81.0807 12.6325 79.6986 8.3651 76.8133 8.77729C71.0183 8.75304 73.637 16.2938 78.3408 14.0388ZM87.894 15.0814C92.5494 11.5899 100.26 14.4995 99.6779 20.9006C99.6779 21.529 99.6769 22.1583 99.6759 22.7886V22.7915C99.6721 25.322 99.6682 27.868 99.7264 30.4296C99.7506 31.0115 99.5809 31.1812 98.999 31.157C97.8109 31.1085 96.647 31.1085 95.459 31.157C94.8528 31.157 94.6831 31.0115 94.6831 30.3811C94.7073 27.4715 94.7316 24.5376 94.6831 21.6038C94.6346 19.858 93.9799 18.7427 92.3554 18.185C88.185 17.4576 87.0454 20.6097 87.2393 24.1739C87.2151 26.2349 87.2151 28.3201 87.2393 30.4053C87.2393 30.9872 87.0454 31.1569 86.4877 31.1327C85.2511 31.1085 84.0145 31.1085 82.778 31.1327C82.196 31.1327 81.9778 30.9872 81.9778 30.3568C82.0055 27.4195 82.0016 24.4822 81.9976 21.5449C81.9946 19.3419 81.9917 17.1389 82.0021 14.9359C82.0021 13.9661 82.1233 13.8448 83.0447 13.8448C83.3423 13.9211 83.8704 13.8798 84.4439 13.8349C85.6927 13.7371 87.1568 13.6224 86.9241 14.6692C86.9197 14.7186 86.9118 14.7721 86.9038 14.8274C86.8683 15.0704 86.828 15.3463 87.0454 15.4451C87.3606 15.5906 87.7 15.2754 87.894 15.0814ZM118.7 13.8592C119.908 13.7666 121.256 13.6632 121.112 14.6207C121.096 17.7216 121.101 20.8333 121.107 23.9557C121.109 25.5209 121.112 27.0889 121.112 28.6595C121.088 30.575 120.7 32.4178 119.681 34.0666C116.335 38.8189 108.795 38.14 104.067 36.0063C103.121 35.5698 102.975 35.1092 103.509 34.212C103.673 33.9276 103.818 33.6308 103.964 33.3339C104.227 32.7955 104.492 32.2562 104.867 31.7874C104.887 31.7596 104.905 31.7339 104.921 31.7107L104.921 31.7105C105.018 31.5716 105.05 31.5242 105.279 31.6904C107.873 33.3634 111.583 34.1635 114.396 32.5875C115.414 31.9813 116.214 30.0416 115.875 28.9263C115.782 28.6032 115.69 28.6754 115.493 28.8295L115.462 28.8535C109.061 33.3149 100.114 27.52 102.345 19.7125C103.679 13.7479 111.656 11.7839 116.044 15.4936C116.266 15.3088 116.241 15.0185 116.217 14.7325C116.178 14.2679 116.139 13.8148 117.16 13.8448C117.483 13.9526 118.072 13.9074 118.7 13.8592ZM113.232 25.8469C107.825 27.7624 104.648 20.4399 109.668 18.185C114.978 15.6633 119.269 23.6162 113.232 25.8469ZM28.8776 9.38346C33.3633 12.6568 39.134 9.91688 35.6667 4.34015C33.0238 -0.775893 25.0467 5.62522 28.8776 9.38346ZM28.1745 19.3731C26.7439 13.6994 37.6549 11.008 39.134 16.318C42.2618 26.5258 33.6542 37.3641 23.8101 39.5705C10.8381 42.4801 -3.90383 30.1386 0.945499 16.6575C2.83674 11.4202 12.0747 12.8507 12.6324 18.185C12.5416 19.6613 12.352 21.0011 12.1795 22.2201C11.4764 27.1878 11.0571 30.1505 18.7668 32.1753C22.525 32.927 26.4772 31.4237 28.8534 28.4413C30.4989 26.4301 29.649 23.9363 28.8507 21.5942C28.5903 20.8304 28.3355 20.0827 28.1745 19.3731Z" fill="url(#paint0_linear_804_26)"/>
<defs>
<linearGradient id="paint0_linear_804_26" x1="0" y1="20" x2="121.122" y2="20" gradientUnits="userSpaceOnUse">
<stop stop-color="#A8336A"/>
<stop offset="0.307292" stop-color="#FF3358"/>
<stop offset="1" stop-color="#F35A21"/>
</linearGradient>
</defs>
</svg>
